<?xml version="1.0" encoding="UTF-8"?>
<svg id="Layer_1" data-name="Layer 1" xmlns="http://www.w3.org/2000/svg" viewBox="0 0 1000 1000">
  <defs>
    <style>
      .cls-1 {
        fill: #fff;
      }
    </style>
  </defs>
  <rect x="0" y="-0" width="0" height="0"/>
  <g>
    <rect class="cls-1" x="201.17" y="453.93" width="25.89" height="92.15"/>
    <polygon class="cls-1" points="292.16 453.93 260.97 453.93 230.29 498.06 262.52 546.07 293.58 546.07 259.68 497.78 292.16 453.93"/>
    <rect class="cls-1" x="299.66" y="453.93" width="25.89" height="92.15"/>
    <path class="cls-1" d="m398.02,505.82c5-2.33,8.91-5.56,11.71-9.71,2.8-4.14,4.21-8.97,4.21-14.5s-1.38-10.35-4.14-14.5c-2.76-4.14-6.56-7.38-11.39-9.71-4.83-2.33-10.44-3.49-16.82-3.49h-40.77v92.15h25.89v-36.75h.36l23.46,36.75h29.38l-26.97-38.38c1.79-.51,3.49-1.12,5.1-1.87Zm-20.58-33.26c3.53,0,6.23.86,8.09,2.59,1.85,1.73,2.78,4.01,2.78,6.86s-.93,5.14-2.78,6.86c-1.85,1.73-4.55,2.59-8.09,2.59h-10.74v-18.9h10.74Z"/>
    <path class="cls-1" d="m487.77,496.99c1.29-.76,2.49-1.61,3.56-2.56,4.66-4.14,6.99-9.49,6.99-16.05,0-4.75-1.16-8.95-3.49-12.62-2.33-3.67-5.58-6.56-9.77-8.67-4.19-2.11-9.08-3.17-14.69-3.17h-44v92.15h42.45c6.38,0,11.97-1.14,16.76-3.43,4.79-2.28,8.52-5.48,11.19-9.57,2.67-4.1,4.01-8.82,4.01-14.17,0-7.42-2.59-13.5-7.77-18.25-1.54-1.41-3.3-2.61-5.24-3.66Zm-24.66-24.43c2.76,0,5.05.69,6.86,2.07,1.81,1.38,2.72,3.54,2.72,6.47s-.91,5.09-2.72,6.47c-1.81,1.38-4.1,2.07-6.86,2.07h-11.39v-17.08h11.39Zm9.06,52.22c-1.99,1.77-4.62,2.65-7.9,2.65h-12.55v-19.93h12.55c2.24,0,4.16.39,5.76,1.16,1.6.78,2.85,1.92,3.75,3.43.9,1.51,1.36,3.3,1.36,5.37,0,3.11-1,5.54-2.98,7.31Z"/>
    <polygon class="cls-1" points="539.86 453.93 504.79 546.07 531.19 546.07 552.87 481.76 574.03 546.07 600.94 546.07 566.26 453.93 539.86 453.93"/>
    <polygon class="cls-1" points="665.27 502.72 626.44 453.93 608.32 453.93 608.32 546.07 634.21 546.07 634.21 498.91 671.74 546.07 691.15 546.07 691.15 453.93 665.27 453.93 665.27 502.72"/>
    <rect class="cls-1" x="706.42" y="453.93" width="25.89" height="92.15"/>
    <polygon class="cls-1" points="764.93 497.78 797.41 453.93 766.22 453.93 735.54 498.06 767.77 546.07 798.83 546.07 764.93 497.78"/>
  </g>
</svg>